<svg version="1.1" id="Layer_1" xmlns="http://www.w3.org/2000/svg" xmlns:xlink="http://www.w3.org/1999/xlink" x="0px" y="0px"
	 width="100%" viewBox="0 0 8000 8000" enable-background="new 0 0 8000 8000" xml:space="preserve">
<path fill="#FFFFFF" opacity="1.000000" stroke="none" 
	d="
M4232.000000,8004.000000 
	C2821.333252,8004.000000 1412.666626,8004.000000 4.000000,8004.000000 
	C4.000000,5337.333496 4.000000,2670.666748 4.000000,4.000001 
	C2670.666748,4.000001 5337.333496,4.000001 8004.000000,4.000000 
	C8004.000000,2670.666748 8004.000000,5337.333496 8004.000000,8004.000000 
	C6747.333496,8004.000000 5490.666504,8004.000000 4232.000000,8004.000000 
M2628.125977,4301.809570 
	C2652.499756,4347.672852 2675.802734,4394.145508 2701.460693,4439.278809 
	C2763.504395,4548.416016 2834.767334,4651.341797 2913.927002,4748.796387 
	C2918.410156,4754.315430 2923.905762,4759.305176 2926.509277,4767.026367 
	C2921.163818,4772.486328 2916.108643,4777.745117 2910.952148,4782.902344 
	C2811.978027,4881.894531 2712.971680,4980.854492 2614.067871,5079.916992 
	C2609.115967,5084.876953 2602.873779,5089.041992 2600.074707,5095.958008 
	C2602.576660,5098.817871 2604.200928,5100.906738 2606.057373,5102.763672 
	C2707.378174,5204.122559 2808.711914,5305.467773 2910.094482,5406.765137 
	C2912.718994,5409.387207 2915.901123,5411.451172 2919.230225,5414.099609 
	C2924.546387,5409.088379 2928.969238,5405.112305 2933.177490,5400.920898 
	C2953.013184,5381.164062 2972.791260,5361.349121 2992.588135,5341.552734 
	C3072.718018,5261.424316 3152.819824,5181.268066 3233.042480,5101.232422 
	C3238.023193,5096.263184 3242.021240,5089.682617 3249.850586,5087.838379 
	C3255.375244,5092.208496 3260.633789,5096.279785 3265.798584,5100.466309 
	C3507.427002,5296.325684 3777.499512,5438.395508 4075.208008,5528.024902 
	C4212.026855,5569.216309 4351.518555,5597.323730 4493.595703,5612.962402 
	C4561.892090,5620.480469 4630.357910,5624.855469 4698.965332,5626.868652 
	C4775.625977,5629.118652 4852.207031,5626.540039 4928.725586,5620.992676 
	C4998.552734,5615.930664 5067.960449,5607.799805 5137.077148,5596.730957 
	C5254.352051,5577.950195 5369.596680,5550.638184 5482.422852,5513.642090 
	C5989.729980,5347.294922 6396.691406,5044.609863 6702.875977,4608.051270 
	C6911.299805,4310.878418 7040.912598,3981.004639 7097.029297,3622.275635 
	C7110.537598,3535.924805 7119.287598,3449.107910 7122.827148,3361.864746 
	C7127.750000,3240.510986 7124.578613,3119.282959 7111.068359,2998.494873 
	C7102.180664,2919.031738 7089.491699,2840.166992 7072.810059,2761.911865 
	C7035.295410,2585.933350 6978.338379,2416.514160 6902.102051,2253.613037 
	C6764.931641,1960.510010 6574.665527,1706.836548 6333.816895,1490.984375 
	C6105.766602,1286.601440 5847.378906,1132.799438 5559.416016,1028.881104 
	C5369.896973,960.488708 5174.748047,917.056030 4973.952148,899.045715 
	C4909.514160,893.265991 4844.989746,889.695007 4780.346191,889.133911 
	C4737.717285,888.763855 4695.064941,890.480530 4652.429688,891.519714 
	C4593.750977,892.949951 4535.333496,898.327515 4477.098145,905.147400 
	C4400.998047,914.059387 4325.503418,926.802185 4250.584961,943.116028 
	C4054.315674,985.854248 3866.473633,1052.307251 3687.304932,1142.999634 
	C3361.250732,1308.043335 3087.844238,1536.803589 2867.168945,1827.660034 
	C2604.575195,2173.765381 2450.700439,2564.036377 2400.918457,2995.394531 
	C2392.436279,3068.892090 2388.107422,3142.738037 2387.156250,3216.788330 
	C2385.853760,3318.206055 2389.508057,3419.376709 2400.788818,3520.181641 
	C2409.681641,3599.645996 2422.457764,3678.500488 2439.248779,3756.727051 
	C2479.699219,3945.180420 2542.322021,4125.908203 2628.125977,4301.809570 
M1228.919434,7113.329102 
	C1309.361816,7129.374512 1387.991455,7123.020508 1464.658569,7093.847656 
	C1524.201172,7071.189941 1574.700928,7035.220215 1619.619507,6990.266113 
	C2057.294434,6552.248535 2495.212158,6114.473145 2933.051025,5676.619141 
	C2937.730957,5671.939453 2942.272461,5667.120117 2947.236328,5661.996094 
	C2944.822754,5658.829102 2943.110107,5655.957520 2940.818848,5653.664551 
	C2745.350586,5458.079590 2549.837891,5262.539551 2354.040039,5066.708008 
	C2345.751465,5071.093262 2340.853271,5077.534180 2335.301514,5083.084473 
	C1900.244629,5518.064941 1465.229492,5953.087402 1030.212891,6388.108398 
	C1024.557251,6393.764160 1018.909546,6399.427734 1013.289734,6405.119141 
	C911.276733,6508.427246 869.265564,6657.827148 904.106018,6801.660156 
	C941.755676,6957.089844 1068.764160,7080.227539 1228.919434,7113.329102 
z"/>
<path fill="#22528C" opacity="1.000000" stroke="none" 
	d="
M2627.509766,4300.439453 
	C2542.322021,4125.908203 2479.699219,3945.180420 2439.248779,3756.727051 
	C2422.457764,3678.500488 2409.681641,3599.645996 2400.788818,3520.181641 
	C2389.508057,3419.376709 2385.853760,3318.206055 2387.156250,3216.788330 
	C2388.107422,3142.738037 2392.436279,3068.892090 2400.918457,2995.394531 
	C2450.700439,2564.036377 2604.575195,2173.765381 2867.168945,1827.660034 
	C3087.844238,1536.803589 3361.250732,1308.043335 3687.304932,1142.999634 
	C3866.473633,1052.307251 4054.315674,985.854248 4250.584961,943.116028 
	C4325.503418,926.802185 4400.998047,914.059387 4477.098145,905.147400 
	C4535.333496,898.327515 4593.750977,892.949951 4652.429688,891.519714 
	C4695.064941,890.480530 4737.717285,888.763855 4780.346191,889.133911 
	C4844.989746,889.695007 4909.514160,893.265991 4973.952148,899.045715 
	C5174.748047,917.056030 5369.896973,960.488708 5559.416016,1028.881104 
	C5847.378906,1132.799438 6105.766602,1286.601440 6333.816895,1490.984375 
	C6574.665527,1706.836548 6764.931641,1960.510010 6902.102051,2253.613037 
	C6978.338379,2416.514160 7035.295410,2585.933350 7072.810059,2761.911865 
	C7089.491699,2840.166992 7102.180664,2919.031738 7111.068359,2998.494873 
	C7124.578613,3119.282959 7127.750000,3240.510986 7122.827148,3361.864746 
	C7119.287598,3449.107910 7110.537598,3535.924805 7097.029297,3622.275635 
	C7040.912598,3981.004639 6911.299805,4310.878418 6702.875977,4608.051270 
	C6396.691406,5044.609863 5989.729980,5347.294922 5482.422852,5513.642090 
	C5369.596680,5550.638184 5254.352051,5577.950195 5137.077148,5596.730957 
	C5067.960449,5607.799805 4998.552734,5615.930664 4928.725586,5620.992676 
	C4852.207031,5626.540039 4775.625977,5629.118652 4698.965332,5626.868652 
	C4630.357910,5624.855469 4561.892090,5620.480469 4493.595703,5612.962402 
	C4351.518555,5597.323730 4212.026855,5569.216309 4075.208008,5528.024902 
	C3777.499512,5438.395508 3507.427002,5296.325684 3265.798584,5100.466309 
	C3260.633789,5096.279785 3255.375244,5092.208496 3249.850586,5087.838379 
	C3242.021240,5089.682617 3238.023193,5096.263184 3233.042480,5101.232422 
	C3152.819824,5181.268066 3072.718018,5261.424316 2992.588135,5341.552734 
	C2972.791260,5361.349121 2953.013184,5381.164062 2933.177490,5400.920898 
	C2928.969238,5405.112305 2924.546387,5409.088379 2919.230225,5414.099609 
	C2915.901123,5411.451172 2912.718994,5409.387207 2910.094482,5406.765137 
	C2808.711914,5305.467773 2707.378174,5204.122559 2606.057373,5102.763672 
	C2604.200928,5100.906738 2602.576660,5098.817871 2600.074707,5095.958008 
	C2602.873779,5089.041992 2609.115967,5084.876953 2614.067871,5079.916992 
	C2712.971680,4980.854492 2811.978027,4881.894531 2910.952148,4782.902344 
	C2916.108643,4777.745117 2921.163818,4772.486328 2926.509277,4767.026367 
	C2923.905762,4759.305176 2918.410156,4754.315430 2913.927002,4748.796387 
	C2834.767334,4651.341797 2763.504395,4548.416016 2701.460693,4439.278809 
	C2675.802734,4394.145508 2652.499756,4347.672852 2627.509766,4300.439453 
M5937.136230,1748.805298 
	C5924.420898,1739.101196 5911.833496,1729.224121 5898.971191,1719.718750 
	C5625.152344,1517.359009 5319.318359,1395.664429 4981.188965,1354.981323 
	C4905.631836,1345.890381 4829.813965,1341.708008 4753.830078,1341.750488 
	C4691.206055,1341.785645 4628.641602,1344.789673 4566.223633,1351.036133 
	C4505.841797,1357.078735 4445.854492,1365.567627 4386.366699,1377.249023 
	C4222.796875,1409.368042 4065.948486,1461.798706 3916.105225,1534.925781 
	C3662.998291,1658.448242 3447.308594,1829.662720 3269.955566,2048.065186 
	C3003.862793,2375.746826 2862.298340,2751.773193 2841.177490,3173.008301 
	C2835.629150,3283.659424 2840.556152,3394.151367 2855.056152,3504.164307 
	C2864.466064,3575.558350 2877.205322,3646.265381 2894.506836,3716.148193 
	C2963.980957,3996.763916 3089.532227,4249.467773 3273.314453,4472.704590 
	C3461.006592,4700.690430 3688.480713,4877.624023 3957.221436,5000.850586 
	C4105.076172,5068.646973 4259.079102,5116.737793 4419.291992,5145.124512 
	C4490.888184,5157.810059 4562.927734,5166.726074 4635.445312,5170.964844 
	C4699.971680,5174.736328 4764.560547,5176.040527 4829.283691,5173.260742 
	C4905.953613,5169.967285 4982.185059,5163.000488 5057.917969,5151.060547 
	C5160.053223,5134.958496 5260.292969,5110.690918 5358.412109,5077.958984 
	C5684.990234,4969.015625 5963.206055,4786.025879 6190.709961,4527.960938 
	C6490.846191,4187.504883 6648.929688,3788.737549 6670.782227,3335.864258 
	C6675.380371,3240.571289 6671.466797,3145.353271 6661.003906,3050.409912 
	C6652.895020,2976.831055 6640.994141,2903.958984 6624.514648,2831.812500 
	C6572.647949,2604.734131 6482.733887,2393.903076 6353.947754,2199.798584 
	C6239.869629,2027.860962 6101.082031,1878.622925 5937.136230,1748.805298 
z"/>
<path fill="#21528C" opacity="1.000000" stroke="none" 
	d="
M1227.251465,7112.986328 
	C1068.764160,7080.227539 941.755676,6957.089844 904.106018,6801.660156 
	C869.265564,6657.827148 911.276733,6508.427246 1013.289734,6405.119141 
	C1018.909546,6399.427734 1024.557251,6393.764160 1030.212891,6388.108398 
	C1465.229492,5953.087402 1900.244629,5518.064941 2335.301514,5083.084473 
	C2340.853271,5077.534180 2345.751465,5071.093262 2354.040039,5066.708008 
	C2549.837891,5262.539551 2745.350586,5458.079590 2940.818848,5653.664551 
	C2943.110107,5655.957520 2944.822754,5658.829102 2947.236328,5661.996094 
	C2942.272461,5667.120117 2937.730957,5671.939453 2933.051025,5676.619141 
	C2495.212158,6114.473145 2057.294434,6552.248535 1619.619507,6990.266113 
	C1574.700928,7035.220215 1524.201172,7071.189941 1464.658569,7093.847656 
	C1387.991455,7123.020508 1309.361816,7129.374512 1227.251465,7112.986328 
z"/>
<path fill="#FFFFFF" opacity="1.000000" stroke="none" 
	d="
M5938.248047,1749.705322 
	C6101.082031,1878.622925 6239.869629,2027.860962 6353.947754,2199.798584 
	C6482.733887,2393.903076 6572.647949,2604.734131 6624.514648,2831.812500 
	C6640.994141,2903.958984 6652.895020,2976.831055 6661.003906,3050.409912 
	C6671.466797,3145.353271 6675.380371,3240.571289 6670.782227,3335.864258 
	C6648.929688,3788.737549 6490.846191,4187.504883 6190.709961,4527.960938 
	C5963.206055,4786.025879 5684.990234,4969.015625 5358.412109,5077.958984 
	C5260.292969,5110.690918 5160.053223,5134.958496 5057.917969,5151.060547 
	C4982.185059,5163.000488 4905.953613,5169.967285 4829.283691,5173.260742 
	C4764.560547,5176.040527 4699.971680,5174.736328 4635.445312,5170.964844 
	C4562.927734,5166.726074 4490.888184,5157.810059 4419.291992,5145.124512 
	C4259.079102,5116.737793 4105.076172,5068.646973 3957.221436,5000.850586 
	C3688.480713,4877.624023 3461.006592,4700.690430 3273.314453,4472.704590 
	C3089.532227,4249.467773 2963.980957,3996.763916 2894.506836,3716.148193 
	C2877.205322,3646.265381 2864.466064,3575.558350 2855.056152,3504.164307 
	C2840.556152,3394.151367 2835.629150,3283.659424 2841.177490,3173.008301 
	C2862.298340,2751.773193 3003.862793,2375.746826 3269.955566,2048.065186 
	C3447.308594,1829.662720 3662.998291,1658.448242 3916.105225,1534.925781 
	C4065.948486,1461.798706 4222.796875,1409.368042 4386.366699,1377.249023 
	C4445.854492,1365.567627 4505.841797,1357.078735 4566.223633,1351.036133 
	C4628.641602,1344.789673 4691.206055,1341.785645 4753.830078,1341.750488 
	C4829.813965,1341.708008 4905.631836,1345.890381 4981.188965,1354.981323 
	C5319.318359,1395.664429 5625.152344,1517.359009 5898.971191,1719.718750 
	C5911.833496,1729.224121 5924.420898,1739.101196 5938.248047,1749.705322 
M3372.302734,3509.707031 
	C3375.180908,3514.195801 3378.046387,3518.692627 3380.938721,3523.172363 
	C3468.126221,3658.220703 3569.714355,3781.225830 3688.279785,3889.958740 
	C3815.989258,4007.076904 3958.141602,4102.313477 4116.837891,4172.520508 
	C4307.706543,4256.959961 4508.046387,4297.782227 4716.104004,4303.014648 
	C4803.532227,4305.213379 4890.597168,4300.162109 4977.339355,4288.808594 
	C5054.083008,4278.763672 5129.623047,4263.162598 5203.972168,4241.735352 
	C5423.277344,4178.532227 5617.560059,4069.644043 5789.427246,3920.176025 
	C5940.628906,3788.680176 6065.477051,3635.181885 6167.518555,3463.048096 
	C6190.928223,3423.557861 6212.372559,3382.843506 6233.363770,3341.995117 
	C6254.269043,3301.314209 6257.517578,3257.973633 6247.677734,3213.564453 
	C6243.467773,3194.563477 6235.354492,3177.031982 6226.504883,3159.818115 
	C6128.471191,2969.120117 6003.758301,2798.064453 5848.391602,2650.043457 
	C5609.523438,2422.468750 5328.600586,2279.389648 5000.950195,2230.874756 
	C4924.325684,2219.529297 4847.309082,2213.859863 4769.950195,2213.077637 
	C4691.896973,2212.288086 4614.133789,2217.132568 4536.676758,2227.244141 
	C4464.575684,2236.656250 4393.484863,2250.812744 4323.422852,2270.185791 
	C4108.849609,2329.519043 3917.383789,2432.625977 3746.853271,2575.164551 
	C3609.812012,2689.711182 3493.779053,2822.977051 3395.127197,2971.614502 
	C3352.721436,3035.506592 3314.153809,3101.632568 3279.925293,3170.272705 
	C3266.646240,3196.901367 3259.382568,3224.886719 3258.920166,3254.808350 
	C3258.414307,3287.520508 3265.757568,3318.150146 3280.402100,3347.251953 
	C3307.968262,3402.031494 3338.036377,3455.389404 3372.302734,3509.707031 
z"/>
<path fill="#192A3C" opacity="1.000000" stroke="none" 
	d="
M3371.576660,3508.452637 
	C3338.036377,3455.389404 3307.968262,3402.031494 3280.402100,3347.251953 
	C3265.757568,3318.150146 3258.414307,3287.520508 3258.920166,3254.808350 
	C3259.382568,3224.886719 3266.646240,3196.901367 3279.925293,3170.272705 
	C3314.153809,3101.632568 3352.721436,3035.506592 3395.127197,2971.614502 
	C3493.779053,2822.977051 3609.812012,2689.711182 3746.853271,2575.164551 
	C3917.383789,2432.625977 4108.849609,2329.519043 4323.422852,2270.185791 
	C4393.484863,2250.812744 4464.575684,2236.656250 4536.676758,2227.244141 
	C4614.133789,2217.132568 4691.896973,2212.288086 4769.950195,2213.077637 
	C4847.309082,2213.859863 4924.325684,2219.529297 5000.950195,2230.874756 
	C5328.600586,2279.389648 5609.523438,2422.468750 5848.391602,2650.043457 
	C6003.758301,2798.064453 6128.471191,2969.120117 6226.504883,3159.818115 
	C6235.354492,3177.031982 6243.467773,3194.563477 6247.677734,3213.564453 
	C6257.517578,3257.973633 6254.269043,3301.314209 6233.363770,3341.995117 
	C6212.372559,3382.843506 6190.928223,3423.557861 6167.518555,3463.048096 
	C6065.477051,3635.181885 5940.628906,3788.680176 5789.427246,3920.176025 
	C5617.560059,4069.644043 5423.277344,4178.532227 5203.972168,4241.735352 
	C5129.623047,4263.162598 5054.083008,4278.763672 4977.339355,4288.808594 
	C4890.597168,4300.162109 4803.532227,4305.213379 4716.104004,4303.014648 
	C4508.046387,4297.782227 4307.706543,4256.959961 4116.837891,4172.520508 
	C3958.141602,4102.313477 3815.989258,4007.076904 3688.279785,3889.958740 
	C3569.714355,3781.225830 3468.126221,3658.220703 3380.938721,3523.172363 
	C3378.046387,3518.692627 3375.180908,3514.195801 3371.576660,3508.452637 
M5479.824219,3337.684814 
	C5480.925781,3325.071045 5482.427734,3312.477783 5483.064941,3299.840576 
	C5487.363770,3214.575195 5478.623535,3130.744629 5453.156738,3049.113281 
	C5443.068359,3016.775635 5430.638184,2985.168701 5418.839355,2952.007812 
	C5467.987793,2856.010986 5462.288086,2763.944336 5390.698242,2678.454346 
	C5311.907715,2598.177979 5220.104980,2584.420410 5117.293457,2625.313232 
	C5114.520996,2623.926758 5111.507812,2622.542480 5108.608398,2620.951904 
	C5024.097656,2574.591797 4934.153320,2545.445557 4838.220703,2534.775146 
	C4753.945312,2525.401123 4670.467285,2529.777100 4588.020996,2549.359863 
	C4283.412598,2621.708984 4051.011475,2883.797607 4029.001221,3210.718018 
	C4023.451904,3293.145020 4032.136230,3374.341309 4054.259766,3454.109131 
	C4130.024414,3727.284668 4368.573730,3950.648438 4683.541504,3983.022461 
	C4758.312012,3990.708008 4832.701172,3986.420166 4906.271484,3970.948730 
	C5129.821289,3923.937744 5319.755859,3772.657227 5416.275879,3565.253418 
	C5449.437012,3493.995605 5470.125000,3419.248535 5479.824219,3337.684814 
z"/>
<path fill="#FDFDFE" opacity="1.000000" stroke="none" 
	d="
M5479.672363,3339.490479 
	C5470.125000,3419.248535 5449.437012,3493.995605 5416.275879,3565.253418 
	C5319.755859,3772.657227 5129.821289,3923.937744 4906.271484,3970.948730 
	C4832.701172,3986.420166 4758.312012,3990.708008 4683.541504,3983.022461 
	C4368.573730,3950.648438 4130.024414,3727.284668 4054.259766,3454.109131 
	C4032.136230,3374.341309 4023.451904,3293.145020 4029.001221,3210.718018 
	C4051.011475,2883.797607 4283.412598,2621.708984 4588.020996,2549.359863 
	C4670.467285,2529.777100 4753.945312,2525.401123 4838.220703,2534.775146 
	C4934.153320,2545.445557 5024.097656,2574.591797 5108.608398,2620.951904 
	C5111.507812,2622.542480 5114.520996,2623.926758 5117.293457,2625.313232 
	C5220.104980,2584.420410 5311.907715,2598.177979 5390.698242,2678.454346 
	C5462.288086,2763.944336 5467.987793,2856.010986 5418.839355,2952.007812 
	C5430.638184,2985.168701 5443.068359,3016.775635 5453.156738,3049.113281 
	C5478.623535,3130.744629 5487.363770,3214.575195 5483.064941,3299.840576 
	C5482.427734,3312.477783 5480.925781,3325.071045 5479.672363,3339.490479 
M5085.900879,3020.261719 
	C4992.592773,2946.881348 4970.533691,2852.900391 5006.343750,2742.809326 
	C4788.108887,2631.602539 4479.314941,2673.520508 4297.998535,2911.943604 
	C4124.797363,3139.694824 4145.719238,3466.478271 4357.175293,3671.438477 
	C4563.002930,3870.943604 4888.844727,3887.011719 5113.571289,3706.890625 
	C5227.945312,3615.218018 5296.833984,3496.024170 5322.400391,3351.633545 
	C5339.117676,3257.220459 5323.316895,3108.529297 5289.747070,3053.400879 
	C5283.668457,3054.819336 5277.368652,3056.752197 5270.924316,3057.701172 
	C5255.799316,3059.928223 5240.638184,3063.017822 5225.434082,3063.386475 
	C5175.318848,3064.601562 5129.503906,3050.517334 5085.900879,3020.261719 
z"/>
<path fill="#192A3B" opacity="1.000000" stroke="none" 
	d="
M5087.057617,3021.112549 
	C5129.503906,3050.517334 5175.318848,3064.601562 5225.434082,3063.386475 
	C5240.638184,3063.017822 5255.799316,3059.928223 5270.924316,3057.701172 
	C5277.368652,3056.752197 5283.668457,3054.819336 5289.747070,3053.400879 
	C5323.316895,3108.529297 5339.117676,3257.220459 5322.400391,3351.633545 
	C5296.833984,3496.024170 5227.945312,3615.218018 5113.571289,3706.890625 
	C4888.844727,3887.011719 4563.002930,3870.943604 4357.175293,3671.438477 
	C4145.719238,3466.478271 4124.797363,3139.694824 4297.998535,2911.943604 
	C4479.314941,2673.520508 4788.108887,2631.602539 5006.343750,2742.809326 
	C4970.533691,2852.900391 4992.592773,2946.881348 5087.057617,3021.112549 
z"/>
</svg>
